#!OML:ASF E:/inclinewalkrobotboard/Project1/Captureday1/Session1/subject1.ASF
:FULLY-SPECIFIED
:DEGREES
201
root 0 0 0 2.08222751574764 1.2259406973128382 -1.017147464584974
lowerback 10.987358444512084 -0.2959033590703709 -2.289031441990444
upperback 2.003884291266195 -0.6953152343611131 1.1012885961981895
thorax -3.93943741812744 -0.25445517637263515 2.41976930161966
lowerneck -6.574438337516506 -1.970022398317495 -0.174505839472071
upperneck 24.514096065954977 -3.0559329987466883 2.3787083063874928
head 9.25099504051256 -1.277894461614581 0.5885940454172673
rclavicle 5.182160779097095E-15 2.649010186351831E-15
rhumerus -8.321626512211001 13.804100127747606 -50.83616764583279
rradius 106.56817958988306
rwrist -42.530130359555535
rhand -4.09977326464576 -54.643588677367624
rfingers 7.125020000000007
rthumb 21.667954194208367 -83.25551609220484
lclavicle 1.807666943730505E-15 3.8411098061327355E-15
lhumerus -44.48030064547524 -7.5245852317153785 85.38883855774995
lradius 61.86321026701489
lwrist 7.194769150974263
lhand -11.691343054828241 -28.958702056409642
lfingers 7.125020000000018
lthumb 14.362105934890995 0.6005506334034649
rfemur 1.2184525453340216 -0.5320630091377638 -2.9959447687783634
rtibia -4.623029198034608
rfoot 0.9126684800910736 0.6545066261249288
rtoes -0.7459085065999511
lfemur 0.8690571059079852 -6.448293274909435 -10.189787895689904
ltibia 22.310075453800238
lfoot -28.197004154422192 14.33591674942909
ltoes -60.04779440423425
202
root 0 0 0 2.0822899796580705 1.2260631127405417 -1.016559952832714
lowerback 10.98719154883318 -0.2962156835838804 -2.2894051664980672
upperback 2.002777808411901 -0.6957783512688873 1.101282298162427
thorax -3.9405428024097233 -0.2546734325820167 2.420016356495192
lowerneck -6.576556252877902 -1.9697987872395943 -0.17454496257767416
upperneck 24.515198042602307 -3.055591408647899 2.377935176146564
head 9.251746978554092 -1.2777534311326293 0.5883417547900217
rclavicle 5.192105047040036E-15 2.644460760946063E-15
rhumerus -8.318971637912451 13.796975338020015 -50.8310172675448
rradius 106.56565620170777
rwrist -42.53380080186645
rhand -4.098515389911128 -54.647154088594924
rfingers 7.125020000000007
rthumb 21.66916506766301 -83.25908013108682
lclavicle 1.8206793478563095E-15 3.834133549237902E-15
lhumerus -44.483055457124095 -7.522579227582339 85.3870113744453
lradius 61.86277499695939
lwrist 7.193467858577327
lhand -11.690649266794392 -28.96010530332581
lfingers 7.125020000000018
lthumb 14.36283888049023 0.5991672626529123
rfemur 1.2193420787827831 -0.5324192894989106 -2.997818368428897
rtibia -4.625758551781029
rfoot 0.9133253034919875 0.6549766851187857
rtoes -0.7462310718497525
lfemur 0.8719529627183755 -6.450643781683244 -10.191996638421525
ltibia 22.309094137202898
lfoot -28.19641741637366 14.335410929647585
ltoes -60.03915863033236
203
root 0 0 0 2.081457235283665 1.2255831349658721 -1.0158669658168868
lowerback 10.985503423527833 -0.29651952445455676 -2.289804520664359
upperback 2.0013183506248335 -0.696220655549129 1.1014746211308835
thorax -3.9411841869108235 -0.25486811426272715 2.4205345326537624
lowerneck -6.578753607747899 -1.9694728076498378 -0.17467633848596187
upperneck 24.518414334090036 -3.0551489771928466 2.377514296534673
head 9.253176478024377 -1.277530862809521 0.5882079435570532
rclavicle 5.195079830138349E-15 2.6380869650717433E-15
rhumerus -8.319362495693465 13.789870229831525 -50.82827878430814
rradius 106.55800266376579
rwrist -42.53837249196736
rhand -4.096589317589421 -54.650427806306794
rfingers 7.125020000000007
rthumb 21.671013401173422 -83.26221652822936
lclavicle 1.823245003900712E-15 3.827314857638214E-15
lhumerus -44.48435884789811 -7.521474710437295 85.38621786808632
lradius 61.862349899815285
lwrist 7.192693620062489
lhand -11.690289212509938 -28.960907194451345
lfingers 7.125020000000018
lthumb 14.363203681930228 0.5983654422801479
rfemur 1.2197176630532676 -0.5326763295639974 -2.998721489960383
rtibia -4.626448734557965
rfoot 0.9139496678383043 0.6552862996132887
rtoes -0.7461528259731594
lfemur 0.8725432342051436 -6.450783035124832 -10.1934963303861
ltibia 22.30986949681613
lfoot -28.194443064760815 14.333646714130602
ltoes -60.032355978128585
204
root 0 0 0 2.081144292830932 1.2243910900182473 -1.0183045816681617
lowerback 10.988457707899821 -0.29535760774356035 -2.288334598347549
upperback 2.0063861244319763 -0.6944913206836341 1.1016313072536983
thorax -3.9373594634450777 -0.25404416044223554 2.4196984662664467
lowerneck -6.569382621557025 -1.9702930598863087 -0.17388892756172747
upperneck 24.51068283846248 -3.05619113148177 2.379731228505882
head 9.24898276100507 -1.2780430061339227 0.5889070250143351
rclavicle 5.154298857451763E-15 2.6874427763959048E-15
rhumerus -8.343101529214858 13.812917737128458 -50.85021522123817
rradius 106.56884665343748
rwrist -42.51861953253568
rhand -4.105471269615673 -54.63370354880265
rfingers 7.125020000000007
rthumb 21.662449918472163 -83.24493897361356
lclavicle 1.7748173551219504E-15 3.855749775604712E-15
lhumerus -44.473896127813916 -7.528043291323338 85.39422014656695
lradius 61.861684810548766
lwrist 7.19563266985401
lhand -11.69250986027587 -28.956065864833786
lfingers 7.125020000000018
lthumb 14.361027286384717 0.6026235142252325
rfemur 1.2206519879150592 -0.5324435638978087 -2.9976184996140685
rtibia -4.625933287047047
rfoot 0.9132377873929727 0.6552374550755276
rtoes -0.7460103886654028
lfemur 0.860833402902407 -6.443202032006763 -10.18599872839507
ltibia 22.312177564255986
lfoot -28.19701161182542 14.335701111857801
ltoes -60.05872491362394
